<svg width="96" height="96" viewBox="0 0 96 96" fill="none" xmlns="http://www.w3.org/2000/svg">
<path d="M64 52.0001L84.892 65.9281C85.1932 66.1285 85.5431 66.2435 85.9044 66.2608C86.2658 66.2781 86.6251 66.197 86.944 66.0262C87.2629 65.8555 87.5296 65.6014 87.7155 65.2911C87.9015 64.9808 87.9998 64.6259 88 64.2641V31.4801C88.0001 31.1282 87.9074 30.7825 87.7311 30.4779C87.5549 30.1733 87.3014 29.9206 86.9962 29.7453C86.6911 29.57 86.3451 29.4783 85.9932 29.4795C85.6413 29.4807 85.2959 29.5747 84.992 29.7521L64 42.0001" stroke="white" stroke-width="8" stroke-linecap="round" stroke-linejoin="round"/>
<path d="M56 24H16C11.5817 24 8 27.5817 8 32V64C8 68.4183 11.5817 72 16 72H56C60.4183 72 64 68.4183 64 64V32C64 27.5817 60.4183 24 56 24Z" stroke="white" stroke-width="8" stroke-linecap="round" stroke-linejoin="round"/>
</svg>
