<svg width="20" height="20" viewBox="0 0 20 20" fill="none" xmlns="http://www.w3.org/2000/svg">
<path d="M4.16669 4.16667C4.1666 3.87342 4.24389 3.58533 4.39076 3.3315C4.53762 3.07767 4.74886 2.86708 5.00315 2.721C5.25743 2.57492 5.54576 2.49853 5.83901 2.49952C6.13227 2.50052 6.42007 2.57887 6.67335 2.72667L16.6709 8.55834C16.9232 8.70474 17.1326 8.91479 17.2783 9.16751C17.424 9.42023 17.5008 9.70675 17.501 9.99845C17.5013 10.2902 17.425 10.5768 17.2797 10.8298C17.1345 11.0828 16.9254 11.2932 16.6734 11.44L6.67335 17.2733C6.42007 17.4211 6.13227 17.4995 5.83901 17.5005C5.54576 17.5015 5.25743 17.4251 5.00315 17.279C4.74886 17.1329 4.53762 16.9223 4.39076 16.6685C4.24389 16.4147 4.1666 16.1266 4.16669 15.8333V4.16667Z" stroke="#155DFC" stroke-width="1.66667" stroke-linecap="round" stroke-linejoin="round"/>
</svg>
